<?xml version="1.0" encoding="utf-8"?><svg width="1376" height="1312" viewBox="0 0 1376 1312" xmlns="http://www.w3.org/2000/svg" xmlns:xlink="http://www.w3.org/1999/xlink"><svg width="800" height="800" viewBox="0 0 512.002 512.002" id="wc-billing" xmlns="http://www.w3.org/2000/svg"><path d="M128.257 392.533h-.085c-4.71 0-8.491 3.823-8.491 8.533s3.866 8.533 8.576 8.533 8.533-3.823 8.533-8.533-3.823-8.533-8.533-8.533zm51.2 0h-.085c-4.71 0-8.491 3.823-8.491 8.533s3.866 8.533 8.576 8.533 8.533-3.823 8.533-8.533-3.823-8.533-8.533-8.533zm68.011-119.466h-68.267c-4.719 0-8.533 3.823-8.533 8.533s3.814 8.533 8.533 8.533h68.267c4.719 0 8.533-3.823 8.533-8.533s-3.814-8.533-8.533-8.533zm-34.134 51.2h-34.133a8.53 8.53 0 00-8.533 8.533 8.53 8.53 0 008.533 8.533h34.133a8.53 8.53 0 008.533-8.533 8.53 8.53 0 00-8.533-8.533zm145.067-25.6c-9.412 0-17.067-7.654-17.067-17.067 0-4.71-3.814-8.533-8.533-8.533s-8.533 3.823-8.533 8.533c0 15.855 10.914 29.107 25.6 32.922v1.212a8.53 8.53 0 008.533 8.533 8.53 8.53 0 008.533-8.533v-1.212c14.686-3.814 25.6-17.067 25.6-32.922 0-18.825-15.309-34.133-34.133-34.133-9.412 0-17.067-7.654-17.067-17.067 0-9.412 7.654-17.067 17.067-17.067 9.412 0 17.067 7.654 17.067 17.067 0 4.71 3.814 8.533 8.533 8.533s8.533-3.823 8.533-8.533c0-15.855-10.914-29.107-25.6-32.922v-1.212a8.53 8.53 0 00-8.533-8.533 8.53 8.53 0 00-8.533 8.533v1.212c-14.686 3.814-25.6 17.067-25.6 32.922 0 18.825 15.309 34.133 34.133 34.133 9.412 0 17.067 7.654 17.067 17.067 0 9.412-7.655 17.067-17.067 17.067zm-25.344 93.866h-.085c-4.71 0-8.491 3.823-8.491 8.533s3.866 8.533 8.576 8.533c4.71 0 8.533-3.823 8.533-8.533s-3.822-8.533-8.533-8.533zm102.4 17.067c4.71 0 8.533-3.823 8.533-8.533s-3.823-8.533-8.533-8.533h-.085c-4.71 0-8.491 3.823-8.491 8.533s3.866 8.533 8.576 8.533zm-51.2-17.067h-.085c-4.71 0-8.491 3.823-8.491 8.533s3.866 8.533 8.576 8.533c4.71 0 8.533-3.823 8.533-8.533s-3.822-8.533-8.533-8.533zM349.868 102.4h34.133a8.53 8.53 0 008.533-8.533 8.53 8.53 0 00-8.533-8.533h-34.133a8.53 8.53 0 00-8.533 8.533 8.53 8.53 0 008.533 8.533zM230.657 392.533h-.085c-4.71 0-8.491 3.823-8.491 8.533s3.866 8.533 8.576 8.533 8.533-3.823 8.533-8.533-3.823-8.533-8.533-8.533zm-102.656-102.4h17.067c4.719 0 8.533-3.823 8.533-8.533s-3.814-8.533-8.533-8.533h-17.067c-4.719 0-8.533 3.823-8.533 8.533s3.814 8.533 8.533 8.533zm0 51.2h17.067a8.53 8.53 0 008.533-8.533 8.53 8.53 0 00-8.533-8.533h-17.067a8.53 8.53 0 00-8.533 8.533 8.53 8.53 0 008.533 8.533z"/><path d="M469.334 0H42.668a8.53 8.53 0 00-8.533 8.533v494.933a8.536 8.536 0 005.265 7.885 8.535 8.535 0 009.301-1.852l45.167-45.167 45.167 45.167a8.523 8.523 0 0012.066 0l28.1-28.1 28.1 28.1a8.523 8.523 0 0012.066 0l28.1-28.1 11.034 11.034a8.525 8.525 0 0012.066 0l28.1-28.1 28.1 28.1a8.525 8.525 0 0012.066 0l19.567-19.567 19.567 19.567a8.525 8.525 0 0012.066 0l45.167-45.167 28.1 28.1c.171.179.35.341.538.495 0 .009.008.009.008.009v.009a8.54 8.54 0 005.112 1.98c.316.009.631.009.964-.009h.009a8.515 8.515 0 005.853-2.935 8.523 8.523 0 002.082-5.564V8.533A8.528 8.528 0 00469.334 0zm-8.533 448.734l-19.567-19.567a8.525 8.525 0 00-12.066 0l-45.167 45.167-19.567-19.567a8.523 8.523 0 00-12.066 0l-19.567 19.567-28.1-28.1a8.523 8.523 0 00-12.066 0l-28.1 28.1-11.034-11.034a8.523 8.523 0 00-12.066 0l-28.1 28.1-28.1-28.1a8.51 8.51 0 00-6.033-2.5 8.509 8.509 0 00-6.033 2.5l-28.1 28.1-45.167-45.167a8.523 8.523 0 00-12.066 0l-36.634 36.634v-465.8h409.6v431.667z"/><path d="M77.057 409.6c4.71 0 8.533-3.823 8.533-8.533s-3.823-8.533-8.533-8.533h-.085c-4.71 0-8.491 3.823-8.491 8.533s3.866 8.533 8.576 8.533zm50.944-170.667h17.067c4.719 0 8.533-3.823 8.533-8.533s-3.814-8.533-8.533-8.533h-17.067c-4.719 0-8.533 3.823-8.533 8.533s3.814 8.533 8.533 8.533zM281.857 409.6c4.71 0 8.533-3.823 8.533-8.533s-3.823-8.533-8.533-8.533h-.085c-4.71 0-8.491 3.823-8.491 8.533s3.866 8.533 8.576 8.533zM179.201 187.733h51.2c4.719 0 8.533-3.823 8.533-8.533s-3.814-8.533-8.533-8.533h-51.2c-4.719 0-8.533 3.823-8.533 8.533s3.814 8.533 8.533 8.533zm-51.2 0h17.067c4.719 0 8.533-3.823 8.533-8.533s-3.814-8.533-8.533-8.533h-17.067c-4.719 0-8.533 3.823-8.533 8.533s3.814 8.533 8.533 8.533zm136.533 34.134h-85.333c-4.719 0-8.533 3.823-8.533 8.533s3.814 8.533 8.533 8.533h85.333c4.719 0 8.533-3.823 8.533-8.533s-3.814-8.533-8.533-8.533zM128.001 102.4h136.533a8.53 8.53 0 008.533-8.533 8.53 8.53 0 00-8.533-8.533H128.001a8.53 8.53 0 00-8.533 8.533 8.53 8.53 0 008.533 8.533z"/></svg><svg width="14" height="14" fill="currentColor" viewBox="0 0 14 14" id="wc-close" x="923" y="512" xmlns="http://www.w3.org/2000/svg"><path stroke="currentColor" stroke-linecap="round" stroke-linejoin="round" stroke-width="2" d="M1 1l12 12M1 13L13 1"/></svg><svg width="25" height="25" fill="none" viewBox="0 0 25 25" id="wc-icon-archive-grid" x="824" y="541" xmlns="http://www.w3.org/2000/svg"><path fill="#021419" d="M.223.244h11.151v11.151H.223zm13.382 0h11.151v11.151H13.605zm0 13.382h11.151v11.151H13.605zm-13.382 0h11.151v11.151H.223z"/></svg><svg width="25" height="25" fill="none" viewBox="0 0 25 25" id="wc-icon-archive-list" x="849" y="541" xmlns="http://www.w3.org/2000/svg"><path fill="#021419" d="M0 0h25v25H0z"/></svg><svg width="40" height="19" fill="none" viewBox="0 0 40 19" id="wc-shipping" x="883" y="512" xmlns="http://www.w3.org/2000/svg"><path fill="currentColor" fill-rule="evenodd" d="M39.566 7.749L33.434.563H10.292v1.49h1.083v-.4h21.562l5.546 6.5V15.9h-1.077a2.445 2.445 0 00-2.372-1.883 2.444 2.444 0 00-2.371 1.883H17.158a2.445 2.445 0 00-2.372-1.883 2.444 2.444 0 00-2.372 1.883h-1.039v-1.76h.935v-1.09H4.773v1.09h5.52v2.852h2.106a2.446 2.446 0 002.387 1.944 2.446 2.446 0 002.388-1.944h15.474a2.446 2.446 0 002.387 1.944 2.448 2.448 0 002.387-1.944h2.144V7.749zm-24.78 10.27c-.846 0-1.532-.69-1.532-1.542 0-.852.686-1.543 1.532-1.543.847 0 1.532.69 1.532 1.543 0 .852-.685 1.543-1.532 1.543zm20.249 0c-.846 0-1.532-.69-1.532-1.542 0-.852.686-1.543 1.532-1.543s1.532.69 1.532 1.543c0 .852-.686 1.543-1.532 1.543zM5.273 4.374h8.803v1.09H5.273v-1.09zM3.33 6.575h9.396v1.091H3.33v-1.09zm12.5 2.203H8.028v1.09h7.802v-1.09zM0 10.98h17.906v1.09H0v-1.09zm30.127-3.743V2.634h1.05L33 4.594l2.746 2.643v1.057h-5.62V7.237z" clip-rule="evenodd"/></svg><svg viewBox="0 0 576 512" fill="currentColor" width="576" height="512" id="wc-shopping-cart" x="800" xmlns="http://www.w3.org/2000/svg"><path d="M528.12 301.319l47.273-208C578.806 78.301 567.391 64 551.99 64H159.208l-9.166-44.81C147.758 8.021 137.93 0 126.529 0H24C10.745 0 0 10.745 0 24v16c0 13.255 10.745 24 24 24h69.883l70.248 343.435C147.325 417.1 136 435.222 136 456c0 30.928 25.072 56 56 56s56-25.072 56-56c0-15.674-6.447-29.835-16.824-40h209.647C430.447 426.165 424 440.326 424 456c0 30.928 25.072 56 56 56s56-25.072 56-56c0-22.172-12.888-41.332-31.579-50.405l5.517-24.276c3.413-15.018-8.002-29.319-23.403-29.319H218.117l-6.545-32h293.145c11.206 0 20.92-7.754 23.403-18.681z"/></svg><svg viewBox="0 0 512 512" fill="currentColor" width="512" height="512" id="wc-sign-in-alt" y="800" xmlns="http://www.w3.org/2000/svg"><path d="M416 448h-84c-6.6 0-12-5.4-12-12v-40c0-6.6 5.4-12 12-12h84c17.7 0 32-14.3 32-32V160c0-17.7-14.3-32-32-32h-84c-6.6 0-12-5.4-12-12V76c0-6.6 5.4-12 12-12h84c53 0 96 43 96 96v192c0 53-43 96-96 96zm-47-201L201 79c-15-15-41-4.5-41 17v96H24c-13.3 0-24 10.7-24 24v96c0 13.3 10.7 24 24 24h136v96c0 21.5 26 32 41 17l168-168c9.3-9.4 9.3-24.6 0-34z"/></svg><svg width="23" height="22" fill="currentColor" viewBox="0 0 23 22" id="wc-support-icon" x="874" y="541" xmlns="http://www.w3.org/2000/svg"><path d="M22.018 11c0-6.065-4.935-11-11-11H6.46C5.334 0 4.418.987 4.418 2.2v1.1a1.1 1.1 0 001.1 1.1h5.657a1.1 1.1 0 001.1-1.1v-.999c4.257.612 7.543 4.275 7.543 8.699 0 4.424-3.286 8.087-7.543 8.699V18.7a1.1 1.1 0 00-1.1-1.1H4.418c-1.214 0-2.2-.987-2.2-2.2v-2.2h1.1V8.8h-3.3v6.6c0 2.427 1.973 4.4 4.4 4.4 0 1.213.916 2.2 2.042 2.2h4.558c6.065 0 11-4.935 11-11z"/></svg><svg width="83" height="29" fill="currentColor" viewBox="0 0 83 29" id="wc-support-product-icon" x="800" y="512" xmlns="http://www.w3.org/2000/svg"><path d="M66.72 3.739c-.752 0-1.301.628-1.301 1.333v2.667a.339.339 0 00.093.239.322.322 0 00.464 0 .34.34 0 00.094-.24V5.073c0-.375.231-.667.65-.667h14.978c.42 0 .65.292.65.667v10c0 .376-.23.667-.65.667h-1.303a.33.33 0 00-.325.334v2.937l-3.694-3.198a.321.321 0 00-.213-.073h-1.954a.321.321 0 00-.233.096.338.338 0 000 .475.322.322 0 00.233.096h1.832l4.14 3.583a.32.32 0 00.349.052.334.334 0 00.191-.302v-3.333h.977c.752 0 1.302-.63 1.302-1.334v-10c0-.705-.55-1.334-1.302-1.334H66.72zM56.303 9.406c-.752 0-1.302.628-1.302 1.333v10c0 .705.55 1.334 1.302 1.334h.977v3.334c0 .13.075.248.191.302a.32.32 0 00.348-.052l4.141-3.584h9.36c.753 0 1.262-.644 1.262-1.333V10.739c0-.704-.55-1.334-1.302-1.333h-8.465a.321.321 0 00-.233.096.337.337 0 000 .474.32.32 0 00.233.096h8.465c.42 0 .651.292.651.667v10c0 .39-.19.667-.61.667h-9.483a.322.322 0 00-.214.073l-3.693 3.198V21.74a.33.33 0 00-.325-.333h-1.303c-.42 0-.65-.292-.65-.666v-10c0-.376.23-.668.65-.668h4.558a.322.322 0 00.234-.096.337.337 0 000-.475.321.321 0 00-.234-.095h-4.558z"/><path stroke="currentColor" d="M44.481 1L31.803 28.19" opacity=".5"/><path d="M11.714 1.738A9.747 9.747 0 004.828 4.6a9.783 9.783 0 00-2.857 6.9v1.428H.415a.414.414 0 00-.415.415v3.841a.417.417 0 00.415.416H1.97v.1a1.228 1.228 0 001.224 1.226h1.028A1.225 1.225 0 005.446 17.7v-5.196a1.227 1.227 0 00-1.223-1.226H3.195a1.212 1.212 0 00-.39.07A8.93 8.93 0 017.3 3.74a8.897 8.897 0 018.824-.001 8.931 8.931 0 014.5 7.605 1.211 1.211 0 00-.382-.067h-1.028a1.224 1.224 0 00-1.224 1.226V17.7a1.228 1.228 0 001.224 1.226h.369v1.857a2.549 2.549 0 01-1.74 2.417l-3.253 1.087-.029-.14a.799.799 0 00-.945-.62l-2.289.48a.802.802 0 00-.618.946l.24 1.149a.8.8 0 00.944.62l2.29-.48a.802.802 0 00.618-.947l-.04-.19 3.346-1.116a3.378 3.378 0 002.306-3.206v-1.875a1.22 1.22 0 001.052-1.208v-.1h1.557a.414.414 0 00.415-.416v-3.84a.416.416 0 00-.415-.416h-1.557v-.424c0-.03-.006-.058-.008-.087V11.5A9.781 9.781 0 0018.6 4.6a9.746 9.746 0 00-6.887-2.862zM.83 16.768V13.76h1.14v3.01H.83zm2.365-4.66h1.028c.218 0 .394.178.394.396V17.7a.395.395 0 01-.394.395H3.195A.395.395 0 012.8 17.7v-5.196c0-.218.176-.395.394-.395zm8.56 13.793l-.227-1.087 2.228-.466.227 1.087-2.229.466zm8.882-8.201a.395.395 0 01-.394.394h-1.028a.395.395 0 01-.394-.395v-5.196c0-.218.176-.394.394-.395h1.028a.39.39 0 01.385.352v.55a.41.41 0 00.009.043v4.646zm1.971-3.941v3.01h-1.142v-3.01h1.142z"/></svg><svg width="24" height="26" fill="currentColor" viewBox="0 0 24 26" id="wc-support-product-icon-mobile" x="800" y="541" xmlns="http://www.w3.org/2000/svg"><path d="M11.714.738A9.747 9.747 0 004.828 3.6a9.783 9.783 0 00-2.857 6.9v1.428H.415a.414.414 0 00-.415.415v3.841a.417.417 0 00.415.416H1.97v.1a1.228 1.228 0 001.224 1.226h1.028A1.225 1.225 0 005.446 16.7v-5.196a1.227 1.227 0 00-1.223-1.226H3.195a1.212 1.212 0 00-.39.07A8.93 8.93 0 017.3 2.74a8.897 8.897 0 018.824-.001 8.931 8.931 0 014.5 7.605 1.211 1.211 0 00-.382-.067h-1.028a1.224 1.224 0 00-1.224 1.226V16.7a1.228 1.228 0 001.224 1.226h.369v1.857a2.549 2.549 0 01-1.74 2.417l-3.253 1.087-.029-.14a.799.799 0 00-.945-.62l-2.289.48a.802.802 0 00-.618.946l.24 1.149a.8.8 0 00.944.62l2.29-.48a.802.802 0 00.618-.947l-.04-.19 3.346-1.116a3.378 3.378 0 002.306-3.206v-1.875a1.22 1.22 0 001.052-1.208v-.1h1.557a.414.414 0 00.415-.416v-3.84a.416.416 0 00-.415-.416h-1.557v-.424c0-.03-.006-.058-.008-.087V10.5A9.781 9.781 0 0018.6 3.6 9.746 9.746 0 0011.713.738zM.83 15.768V12.76h1.14v3.01H.83zm2.365-4.66h1.028c.218 0 .394.178.394.396V16.7a.395.395 0 01-.394.395H3.195A.395.395 0 012.8 16.7v-5.196c0-.218.176-.395.394-.395zm8.56 13.793l-.227-1.087 2.228-.466.227 1.087-2.229.466zm8.882-8.201a.395.395 0 01-.394.394h-1.028a.395.395 0 01-.394-.395v-5.196c0-.218.176-.394.394-.395h1.028a.39.39 0 01.385.352v.55a.41.41 0 00.009.043v4.646zm1.971-3.941v3.01h-1.142v-3.01h1.142z"/></svg><svg viewBox="0 0 496 512" fill="currentColor" width="496" height="512" id="wc-user-circle" x="512" y="800" xmlns="http://www.w3.org/2000/svg"><path d="M248 8C111 8 0 119 0 256s111 248 248 248 248-111 248-248S385 8 248 8zm0 96c48.6 0 88 39.4 88 88s-39.4 88-88 88-88-39.4-88-88 39.4-88 88-88zm0 344c-58.7 0-111.3-26.6-146.5-68.2 18.8-35.4 55.6-59.8 98.5-59.8 2.4 0 4.8.4 7.1 1.1 13 4.2 26.6 6.9 40.9 6.9 14.3 0 28-2.7 40.9-6.9 2.3-.7 4.7-1.1 7.1-1.1 42.9 0 79.7 24.4 98.5 59.8C359.3 421.4 306.7 448 248 448z"/></svg></svg>