<svg width="218" height="26" viewBox="0 0 218 26" fill="none" xmlns="http://www.w3.org/2000/svg"><g clip-path="url(#clip0_966_1786)" fill="#fff"><path d="M136.215 23.874c-5.759.07-10.655-4.534-10.547-11.3 0-6.66 3.996-11.618 9.863-11.193 4.428.319 8.244 3.152 9.432 8.04h.432l.648-5.277c-.792-.85-1.872-1.63-3.24-2.374-1.98-1.027-4.68-1.735-7.452-1.735-7.847-.107-13.859 5.526-13.751 12.787-.144 7.758 6.48 13.319 13.427 13.177 5.04 0 8.064-2.444 10.332-5.42l-.612-.46c-2.34 2.409-5.148 3.755-8.532 3.755zM20.263 19.41a12.454 12.454 0 01-6.552 4.428c-1.115.32-2.447.46-3.96.46-.647 0-1.331-.035-1.98-.14-.647-.107-.611-.213-1.295-.355-.036 0 0-1.594 0-1.7V9.563c0-1.877-.18-3.896.108-5.774.18-1.24 1.332-2.054 2.448-2.48.252-.106.504-.176.756-.247v-.39c-.504 0-.972.036-1.476.036-1.08.035-2.16.035-3.24.035-1.008 0-1.98 0-2.952-.035C1.616.708 1.04.672.5.637v.319c.792.283 1.548.743 1.98 1.452.252.425.432.992.504 1.7.072.709.108 1.559.108 2.621v14.913c0 .496-.036.957-.144 1.31-.072.39-.288.71-.54.957a3.914 3.914 0 01-1.152.673c-.216.071-.432.142-.72.177v.567c.216 0 .396-.035.612-.035.648-.036 1.26-.036 1.908-.036h10.547c.937 0 1.836 0 2.772.036.936.035 1.872.07 2.772.106l2.34-6.695h-.828a7.73 7.73 0 01-.396.709zM81.209.708c-.828.035-1.656.035-2.484.035-.9 0-1.8 0-2.7-.035-.468 0-.936-.036-1.404-.071v.425c.432.213.828.496 1.188.708a3.984 3.984 0 011.44 1.842c.36.815.576 1.807.684 3.011a46.84 46.84 0 01.18 4.216v4.392c0 .744 0 1.488-.036 2.232 0 .743-.036 1.487-.036 2.231h-.072c-.504-.708-1.224-1.594-2.088-2.692-.864-1.098-1.836-2.267-2.88-3.542a261.461 261.461 0 00-3.24-3.897 253.82 253.82 0 00-3.168-3.754c-.972-1.17-1.872-2.232-2.628-3.153-.756-.92-1.332-1.594-1.656-2.054-.576.035-1.116.07-1.656.106-.54.035-1.08.035-1.656.035-1.08 0-2.016 0-2.807-.035-.396 0-.828-.036-1.26-.036v.39c.575.177 1.151.354 1.691.567.972.39 1.836.992 2.664 1.913l-.468 17.286c-.036.885-.144 1.558-.36 2.054-.216.496-.54.85-.971 1.134a4.82 4.82 0 01-1.62.567c-.288.035-.612.106-.972.177v.566c.288 0 .575-.035.864-.035.72-.035 1.44-.035 2.195-.035 1.296 0 2.556 0 3.78.035.828 0 1.656.035 2.52.07v-.566c-.612-.106-1.116-.213-1.512-.39-.684-.248-1.188-.708-1.548-1.381-.36-.709-.576-1.7-.648-2.976a94.095 94.095 0 01-.144-5.277V8.146c0-.638 0-1.311.036-1.913 0-.638.036-1.275.072-1.913 1.152 1.24 2.448 2.621 3.888 4.215a115.57 115.57 0 014.464 5.101 176.152 176.152 0 014.68 5.81c1.584 2.018 3.06 4.144 4.464 6.304h1.404V5.738c0-1.488.288-2.586.9-3.294a4.659 4.659 0 012.016-1.382V.708c-.324-.036-.684 0-1.116 0zm30.634 2.728c-1.26-1.134-2.771-1.984-4.499-2.55C105.616.283 103.78 0 101.836 0s-3.78.283-5.508.886c-1.728.602-3.24 1.452-4.5 2.55a12.859 12.859 0 00-3.06 4.074c-.756 1.594-1.116 3.435-1.116 5.455 0 2.019.36 3.86 1.116 5.455.756 1.594 1.764 2.975 3.06 4.073 1.26 1.134 2.772 1.984 4.5 2.55 1.728.603 3.564.886 5.508.886s3.78-.283 5.508-.885c1.728-.603 3.239-1.453 4.499-2.55a12.86 12.86 0 003.06-4.074c.756-1.594 1.116-3.436 1.116-5.455 0-2.02-.36-3.861-1.116-5.455-.792-1.594-1.8-2.94-3.06-4.074zm-.576 13.992c-.468 1.417-1.115 2.656-1.979 3.72-.864 1.062-1.944 1.912-3.168 2.55-1.26.637-2.664.956-4.248.956s-2.988-.319-4.248-.956a9.623 9.623 0 01-3.168-2.55 10.9 10.9 0 01-1.98-3.72c-.468-1.417-.684-2.87-.684-4.393 0-1.523.216-3.01.684-4.392.468-1.417 1.116-2.657 1.98-3.72.864-1.062 1.944-1.912 3.168-2.55 1.26-.637 2.664-.956 4.248-.956s2.988.319 4.248.956a9.623 9.623 0 013.168 2.55 10.9 10.9 0 011.979 3.72c.468 1.417.684 2.87.684 4.392 0 1.488-.216 2.976-.684 4.393zm49.031 7.121c-.54-.213-.936-.532-1.224-.957-.252-.425-.432-.992-.504-1.665-.072-.673-.108-1.558-.108-2.621V6.696c0-1.063.036-1.913.108-2.622.072-.708.216-1.24.468-1.664.252-.426.648-.744 1.152-.957a5.757 5.757 0 011.008-.283V.674c-.468.035-.9.035-1.368.07-.828.036-1.692.036-2.52.036-1.08 0-2.124 0-3.132-.035-.576 0-1.188-.036-1.8-.071v.567c.324.07.612.141.864.248.54.212.936.53 1.224.956.252.425.432.992.504 1.665.072.708.108 1.558.108 2.621v12.575a26.25 26.25 0 01-.108 2.621c-.072.709-.216 1.24-.504 1.665-.252.425-.648.744-1.152.957-.252.106-.576.177-.9.247v.567c.504-.035 1.008-.035 1.512-.07.936-.036 1.836-.036 2.808-.036.972 0 1.944 0 2.916.035.54 0 1.08.036 1.62.071v-.567c-.432-.07-.72-.177-.972-.247zm30.131-16.402c.108-.035.072-.07.072-.106l-.072.035c-.036.036-.036.071 0 .071zm-7.776 16.649c-.72-.141-1.368-.354-1.872-.85-.828-.85-.864-2.125-.864-3.259V1.878c1.98-.106 4.428-.141 6.12.886 1.476.92 2.988 2.515 3.888 4.18l.36-.107c-.756-2.975-1.296-6.163-1.296-6.163-1.044.035-2.088.07-3.132.07-3.132.072-6.264.072-9.396.072-1.98 0-3.959-.036-5.939-.071-1.044-.036-2.088-.036-3.132-.071 0 0-.54 3.188-1.296 6.163l.36.107c.864-1.665 2.412-3.26 3.888-4.18 1.656-1.027 4.139-.957 6.083-.886V20.51c0 1.275-.072 2.728-1.044 3.578-.468.39-1.044.602-1.62.708v.532c2.952-.107 5.904-.107 8.856 0v-.532h.036zm33.048-.638c-.828-.815-1.296-1.877-1.764-2.94-.54-1.275-1.044-2.515-1.584-3.79-1.044-2.515-2.124-5.066-3.168-7.58-1.368-3.295-2.736-6.554-4.104-9.848.108.248-3.24.956-3.312 1.169-.036.07.252.425.288.531.072.213.072.46.036.673-.036.496-.216.957-.432 1.382-2.52 5.455-5.04 10.91-7.704 16.33-.936 1.877-2.052 3.931-3.852 4.888v.354c2.34-.106 4.68-.106 7.02 0v-.39c-.972-.39-1.836-.956-2.124-1.913-.288-.991.108-2.019.54-2.94.612-1.381 1.224-2.727 1.836-4.108.252-.107.504-.178.792-.178 1.584-.106 3.168 1.311 4.428 2.232.108.07.252.177.36.248 1.26.85 2.556.531 3.6-.354.36-.32.684-.709 1.008-1.134.108-.142.216-.319.324-.496a1.89 1.89 0 01.252-.354c.648 1.523 1.296 3.082 1.98 4.605.324.78.684 1.665.468 2.515-.18.744-.792 1.31-1.512 1.665-.324.141-.648.248-.972.354v.213c3.132-.107 6.3-.107 9.431.035v-.106c-.756-.213-1.368-.567-1.835-1.063zm-8.136-8.537c-.108.142-.216.248-.324.39-.468.46-1.008.78-1.728.815-2.016.035-3.6-1.524-5.472-2.02a2.69 2.69 0 00-1.584.071c-.252.071-.54.213-.756.32 1.728-3.862 3.42-7.723 5.148-11.584 1.656 3.897 3.312 7.758 4.968 11.654-.108.142-.18.283-.252.354zM49.818 24.158c-.828-.815-1.296-1.877-1.764-2.94-.54-1.275-1.044-2.515-1.584-3.79-1.044-2.515-2.124-5.066-3.168-7.58C41.934 6.552 40.566 3.293 39.2 0c.108.248-3.24.956-3.312 1.169-.036.07.252.425.288.531.072.213.072.46.036.673-.036.496-.216.957-.432 1.382-2.52 5.455-5.04 10.91-7.704 16.33-.9 1.841-2.016 3.825-3.744 4.817v.425a82.946 82.946 0 017.272 0v-.248c-1.116-.39-2.16-.992-2.484-2.055-.288-.991.108-2.019.54-2.94.612-1.381 1.224-2.727 1.836-4.108.252-.107.504-.178.792-.178 1.584-.106 3.168 1.311 4.428 2.232.108.07.252.177.36.248 1.26.85 2.555.531 3.6-.354.36-.32.683-.709 1.007-1.134.108-.142.216-.319.324-.496a1.89 1.89 0 01.252-.354c.648 1.523 1.296 3.082 1.98 4.605.324.78.684 1.665.468 2.515-.18.744-.792 1.31-1.512 1.665-.324.141-.648.248-.972.354v.213c3.024-.107 6.048-.107 9.072.035v-.248a3.856 3.856 0 01-1.476-.921zm-8.136-8.537c-.108.142-.216.248-.324.39-.468.46-1.008.78-1.727.815-2.016.035-3.6-1.524-5.472-2.02a2.69 2.69 0 00-1.584.071c-.252.071-.54.213-.756.32 1.728-3.862 3.42-7.723 5.148-11.584 1.656 3.897 3.312 7.758 4.967 11.654-.108.142-.18.283-.252.354zM165.95 8.147c0-.035 0-.035.036-.07l-.072-.036c-.036.07-.072.07.036.106z"/></g><defs><clipPath id="clip0_966_1786"><path fill="#fff" transform="translate(.5)" d="M0 0h217v26H0z"/></clipPath></defs></svg>