<svg xmlns="http://www.w3.org/2000/svg" width="31" height="22" fill="none"><path fill="currentColor" d="m30.038 10.353-1.802-5.322a1.504 1.504 0 0 0-1.422-1.026h-5.788V1.502A1.502 1.502 0 0 0 19.525 0H1.502A1.502 1.502 0 0 0 0 1.502v2.002a.5.5 0 0 0 1.001 0V1.502a.5.5 0 0 1 .5-.5h18.024a.5.5 0 0 1 .5.5V16.02H8.956a3.504 3.504 0 0 0-4.896 0H1.001V5.507a.5.5 0 0 0-1 0v13.016a.5.5 0 0 0 .5.5h2.543a3.505 3.505 0 0 0 6.929 0h6.548a.5.5 0 1 0 0-1H9.973a3.375 3.375 0 0 0-.306-1.002h11.705a3.374 3.374 0 0 0-.305 1.002h-2.544a.5.5 0 0 0 0 1h2.544a3.504 3.504 0 0 0 6.928 0h1.542a.5.5 0 0 0 .501-.5v-8.01a.597.597 0 0 0 0-.16Zm-9.012-5.347h5.788a.5.5 0 0 1 .475.34l1.748 5.247v5.427h-2.058a3.504 3.504 0 0 0-4.896 0h-1.056V5.006ZM1.002 17.021H3.35a3.375 3.375 0 0 0-.305 1.002H1V17.02Zm5.507 4.005a2.504 2.504 0 1 1 0-5.008 2.504 2.504 0 0 1 0 5.008Zm18.023 0a2.504 2.504 0 1 1 0-5.008 2.504 2.504 0 0 1 0 5.008Zm4.506-3.003h-1.042a3.374 3.374 0 0 0-.305-1.002h1.347v1.002Z"/><path fill="currentColor" d="M24.53 17.021a1.502 1.502 0 1 0 0 3.004 1.502 1.502 0 0 0 0-3.003Zm0 2.003a.5.5 0 1 1 0-1 .5.5 0 0 1 0 1ZM22.529 13.016h1a.5.5 0 0 0 0-1.001h-1a.5.5 0 0 0 0 1ZM6.508 17.021a1.502 1.502 0 1 0 0 3.005 1.502 1.502 0 0 0 0-3.005Zm0 2.003a.5.5 0 1 1 0-1 .5.5 0 0 1 0 1ZM7.51 3.505a2.003 2.003 0 1 0 0 4.006 2.003 2.003 0 0 0 0-4.006Zm0 3.004a1.002 1.002 0 1 1 0-2.003 1.002 1.002 0 0 1 0 2.003ZM11.514 11.514a2.003 2.003 0 1 0 4.007 0 2.003 2.003 0 0 0-4.007 0Zm3.004 0a1.002 1.002 0 1 1-2.003 0 1.002 1.002 0 0 1 2.003 0ZM13.102 3.73 7.094 12.74a.5.5 0 0 0 .416.776.5.5 0 0 0 .415-.225l6.008-9.012a.5.5 0 0 0-.831-.55ZM22.528 11.014h4.896a.5.5 0 0 0 .406-.21.5.5 0 0 0 .07-.451L26.57 6.348a.5.5 0 0 0-.501-.34h-3.54a.5.5 0 0 0-.5.5v4.005a.501.501 0 0 0 .5.5Zm.501-4.005h2.704l1 3.004H23.03V7.009Z"/></svg>
