<svg xmlns="http://www.w3.org/2000/svg" width="24" height="24" fill="none"><mask id="a" width="24" height="24" x="0" y="0" fill="#000" maskUnits="userSpaceOnUse"><path fill="#fff" d="M0 0h24v24H0z"/><path d="M11.998 1a.355.355 0 1 0 0 .71 10.302 10.302 0 1 1-7.417 3.164v.206a.357.357 0 0 0 .347.362.355.355 0 0 0 .355-.35l.02-1.06a.37.37 0 0 0-.05-.183.04.04 0 0 0 0-.016.072.072 0 0 0-.017-.022.118.118 0 0 0-.026-.033.18.18 0 0 0-.021-.019l-.029-.026-.023-.012-.043-.023a.379.379 0 0 0-.137-.031l-1.06-.017a.353.353 0 0 0-.362.348.357.357 0 0 0 .35.362h.201A10.999 10.999 0 1 0 11.998 1Z"/></mask><path fill="currentColor" d="M11.998 1a.355.355 0 1 0 0 .71 10.302 10.302 0 1 1-7.417 3.164v.206a.357.357 0 0 0 .347.362.355.355 0 0 0 .355-.35l.02-1.06a.37.37 0 0 0-.05-.183.04.04 0 0 0 0-.016.072.072 0 0 0-.017-.022.118.118 0 0 0-.026-.033.18.18 0 0 0-.021-.019l-.029-.026-.023-.012-.043-.023a.379.379 0 0 0-.137-.031l-1.06-.017a.353.353 0 0 0-.362.348.357.357 0 0 0 .35.362h.201A10.999 10.999 0 1 0 11.998 1Z"/><path fill="currentColor" d="M11.998 1v.2h.152l.041-.146L11.998 1Zm0 .71v.2-.2Zm10.103 8.235-.196.04.196-.04Zm-.968 6.85.177.093-.177-.093Zm-5.083 4.693.078.184-.078-.184Zm-6.906.42.056-.192-.056.192ZM3.53 17.864l-.164.114.164-.114Zm-1.79-6.682-.2-.016.2.016Zm2.84-6.308h.2v-.497l-.343.358.144.139Zm0 .206.2.002V5.08h-.2Zm.348.362-.005.2h.005v-.2Zm.355-.35-.2-.004.2.003Zm.02-1.06.2.003V4.03l-.2.001Zm-.05-.183-.196-.041-.016.075.038.066.174-.1Zm0-.016.195-.042-.005-.026-.012-.023-.178.09Zm-.017-.022-.177.094.017.032.028.025.132-.15Zm-.026-.033-.145.138.006.006.006.006.133-.15Zm-.021-.019-.136.148.007.006.008.005.12-.159Zm-.029-.026.136-.147-.021-.02-.026-.012-.089.18Zm-.023-.012-.097.176.008.004.089-.18Zm-.043-.023.097-.175-.008-.005-.01-.004-.079.184Zm-.137-.031.007-.2H4.96l-.003.2Zm-1.06-.017v-.2l-.003.4.003-.2Zm0 0v.2l.005-.4-.005.2Zm-.362.348-.2-.003.2.003Zm.35.362-.004.2h.004v-.2Zm.201 0v-.2h-.085l-.059.061.144.14Zm-3.048 6.731.199.017-.2-.017Zm1.897 7.14-.164.114.164-.113Zm5.988 4.33.056-.192-.056.192Zm7.377-.436.078.184-.078-.184Zm5.436-5.005.177.093-.177-.093Zm1.043-7.315.196-.04-.196.04Zm-3.82-6.324.126-.155-.126.155ZM11.999 1V.8h-.152l-.041.146.193.054Zm0-.2a.555.555 0 0 0-.556.555h.4c0-.085.07-.155.155-.155V.8Zm-.556.555c0 .307.249.555.555.555v-.4a.155.155 0 0 1-.154-.155h-.4ZM12 1.91c2.329-.002 4.587.8 6.392 2.272l.253-.31a10.502 10.502 0 0 0-6.646-2.362v.4Zm6.392 2.272a10.102 10.102 0 0 1 3.514 5.803l.392-.08a10.501 10.501 0 0 0-3.653-6.033l-.253.31Zm3.514 5.803a10.102 10.102 0 0 1-.95 6.717l.355.186a10.502 10.502 0 0 0 .987-6.984l-.392.08Zm-.95 6.717a10.103 10.103 0 0 1-4.983 4.602l.156.368a10.503 10.503 0 0 0 5.182-4.784l-.354-.186Zm-4.983 4.602a10.102 10.102 0 0 1-6.772.412l-.111.384c2.325.673 4.812.522 7.04-.428l-.158-.368Zm-6.772.412a10.103 10.103 0 0 1-5.505-3.965l-.33.227A10.504 10.504 0 0 0 9.09 22.1l.11-.384ZM3.695 17.75a10.102 10.102 0 0 1-1.756-6.553l-.398-.032c-.195 2.413.45 4.82 1.825 6.812l.329-.227Zm-1.756-6.553a10.102 10.102 0 0 1 2.786-6.186l-.288-.277a10.502 10.502 0 0 0-2.896 6.43l.398.033Zm2.442-6.324v.206h.4v-.206h-.4Zm0 .203a.557.557 0 0 0 .542.564l.01-.4a.157.157 0 0 1-.152-.159l-.4-.005Zm.547.565a.555.555 0 0 0 .555-.548l-.4-.005a.155.155 0 0 1-.155.153v.4Zm.555-.547.02-1.06-.4-.007-.02 1.06.4.007Zm.02-1.065a.57.57 0 0 0-.077-.28l-.347.2a.17.17 0 0 1 .023.083l.4-.003Zm-.055-.14a.24.24 0 0 0 0-.099l-.391.083a.16.16 0 0 1 0-.066l.391.083Zm-.017-.148a.272.272 0 0 0-.063-.08l-.264.3a.128.128 0 0 1-.03-.038l.357-.182Zm-.018-.024a.318.318 0 0 0-.07-.09l-.266.3a.082.082 0 0 1-.018-.023l.354-.187Zm-.058-.078a.378.378 0 0 0-.045-.04l-.242.318s-.002 0-.003-.002l.29-.276Zm-.031-.028-.028-.026-.271.294.028.027.271-.295Zm-.075-.058-.023-.012-.178.359.023.011.178-.358Zm-.015-.007-.043-.024-.194.35.043.023.194-.35Zm-.06-.033a.58.58 0 0 0-.21-.047l-.014.4c.022 0 .045.006.065.014l.159-.367Zm-.214-.047L3.9 3.45l-.006.4 1.06.017.006-.4Zm-1.063.383v-.4.4Zm.005-.4a.553.553 0 0 0-.398.154l.278.289a.153.153 0 0 1 .11-.043l.01-.4Zm-.398.154a.553.553 0 0 0-.17.391l.4.006c.001-.04.018-.08.048-.108l-.278-.289Zm-.17.392a.557.557 0 0 0 .547.564l.008-.4A.157.157 0 0 1 3.735 4l-.4-.004Zm.551.564h.201v-.4h-.201v.4Zm.201-.4v.4-.4Zm-.144.061a11.199 11.199 0 0 0-3.104 6.854l.399.033A10.799 10.799 0 0 1 4.23 4.498l-.288-.278ZM.838 11.075a11.2 11.2 0 0 0 1.933 7.27l.33-.226a10.799 10.799 0 0 1-1.864-7.011l-.399-.034Zm1.933 7.27a11.2 11.2 0 0 0 6.096 4.408l.112-.384a10.799 10.799 0 0 1-5.879-4.25l-.33.226Zm6.096 4.408c2.48.722 5.133.566 7.51-.444l-.156-.368a10.801 10.801 0 0 1-7.242.428l-.112.384Zm7.51-.444a11.201 11.201 0 0 0 5.536-5.096l-.354-.186a10.8 10.8 0 0 1-5.338 4.914l.157.368Zm5.536-5.096a11.201 11.201 0 0 0 1.062-7.448l-.392.08a10.8 10.8 0 0 1-1.024 7.182l.354.186Zm1.062-7.448a11.2 11.2 0 0 0-3.89-6.44l-.253.31a10.8 10.8 0 0 1 3.75 6.21l.393-.08Zm-3.89-6.44A11.2 11.2 0 0 0 11.998.8v.4c2.49 0 4.905.86 6.834 2.436l.253-.31ZM11.805.947l.386.108-.385-.108Z" mask="url(#a)"/><path fill="currentColor" stroke="currentColor" stroke-width=".2" d="M11.957 20.54h.041a8.538 8.538 0 1 0-8.537-8.537 8.547 8.547 0 0 0 8.496 8.537Zm-.414-16.15v.841a.455.455 0 1 0 .91 0v-.84a7.636 7.636 0 0 1 7.158 7.157h-.84a.455.455 0 1 0 0 .91h.84a7.635 7.635 0 0 1-2.222 4.936L11.544 4.39Zm.91 15.226v-.84a.455.455 0 1 0-.91 0v.84a7.636 7.636 0 0 1-7.157-7.158h.84a.455.455 0 1 0 0-.91h-.84a7.636 7.636 0 0 1 2.222-4.935l5.845 13.003Z"/><path fill="currentColor" stroke="currentColor" stroke-width=".2" d="m14.35 14.05-2.592-1.662-.005-.003a.45.45 0 0 1-.161-.587l2.777-5.505.001-.001a.457.457 0 0 1 .606-.2h.001a.453.453 0 0 1 .2.608l-.089-.045.09.045-.828 7.35Zm0 0h-.001l.288.185a.456.456 0 0 0 .491-.767l-.054.084.054-.084-.778.583Zm-1.75-2.209-.075-.048-.054.084.09.045.04-.08Z"/></svg>
