<svg xmlns="http://www.w3.org/2000/svg" width="40" height="19" fill="none"><path fill="currentColor" fill-rule="evenodd" d="M39.566 7.749 33.434.563H10.292v1.49h1.083v-.4h21.562l5.546 6.5V15.9h-1.077a2.445 2.445 0 0 0-2.372-1.883 2.444 2.444 0 0 0-2.371 1.883H17.158a2.445 2.445 0 0 0-2.372-1.883 2.444 2.444 0 0 0-2.372 1.883h-1.039v-1.76h.935V13.05H4.773v1.09h5.52v2.852h2.106a2.446 2.446 0 0 0 2.387 1.944 2.446 2.446 0 0 0 2.388-1.944h15.474a2.446 2.446 0 0 0 2.387 1.944 2.448 2.448 0 0 0 2.387-1.944h2.144V7.749Zm-24.78 10.27c-.846 0-1.532-.69-1.532-1.542 0-.852.686-1.543 1.532-1.543.847 0 1.532.69 1.532 1.543 0 .852-.685 1.543-1.532 1.543Zm20.249 0c-.846 0-1.532-.69-1.532-1.542 0-.852.686-1.543 1.532-1.543s1.532.69 1.532 1.543c0 .852-.686 1.543-1.532 1.543ZM5.273 4.374h8.803v1.09H5.273v-1.09ZM3.33 6.575h9.396v1.091H3.33v-1.09Zm12.5 2.203H8.028v1.09h7.802v-1.09ZM0 10.98h17.906v1.09H0v-1.09Zm30.127-3.743V2.634h1.05L33 4.594l2.746 2.643v1.057h-5.62V7.237Z" clip-rule="evenodd"/></svg>
