<svg xmlns="http://www.w3.org/2000/svg" width="24" height="26" fill="currentColor"><path d="M11.714.738A9.747 9.747 0 0 0 4.828 3.6a9.783 9.783 0 0 0-2.857 6.9v1.428H.415a.414.414 0 0 0-.415.415v3.841a.417.417 0 0 0 .415.416H1.97v.1a1.228 1.228 0 0 0 1.224 1.226h1.028A1.225 1.225 0 0 0 5.446 16.7v-5.196a1.227 1.227 0 0 0-1.223-1.226H3.195a1.212 1.212 0 0 0-.39.07A8.93 8.93 0 0 1 7.3 2.74a8.897 8.897 0 0 1 8.824-.001 8.931 8.931 0 0 1 4.5 7.605 1.211 1.211 0 0 0-.382-.067h-1.028a1.224 1.224 0 0 0-1.224 1.226V16.7a1.228 1.228 0 0 0 1.224 1.226h.369v1.857a2.549 2.549 0 0 1-1.74 2.417l-3.253 1.087-.029-.14a.799.799 0 0 0-.945-.62l-2.289.48a.802.802 0 0 0-.618.946l.24 1.149a.8.8 0 0 0 .944.62l2.29-.48a.802.802 0 0 0 .618-.947l-.04-.19 3.346-1.116a3.378 3.378 0 0 0 2.306-3.206v-1.875a1.22 1.22 0 0 0 1.052-1.208v-.1h1.557a.414.414 0 0 0 .415-.416v-3.84a.416.416 0 0 0-.415-.416h-1.557v-.424c0-.03-.006-.058-.008-.087V10.5A9.781 9.781 0 0 0 18.6 3.6 9.746 9.746 0 0 0 11.713.738ZM.83 15.768V12.76H1.97v3.01H.83Zm2.365-4.66h1.028c.218 0 .394.178.394.396V16.7a.395.395 0 0 1-.394.395H3.195A.395.395 0 0 1 2.8 16.7v-5.196c0-.218.176-.395.394-.395Zm8.56 13.793-.227-1.087 2.228-.466.227 1.087-2.229.466Zm8.882-8.201a.395.395 0 0 1-.394.394h-1.028a.395.395 0 0 1-.394-.395v-5.196c0-.218.176-.394.394-.395h1.028a.39.39 0 0 1 .385.352v.55a.41.41 0 0 0 .009.043v4.646Zm1.971-3.941v3.01h-1.142v-3.01h1.142Z"/></svg>
