<svg width="30" height="29" viewBox="0 0 30 29" xmlns="http://www.w3.org/2000/svg">
<path d="M1.54192 28.4137C2.32992 29.1937 3.60992 29.1937 4.39992 28.4137L15.0479 17.8537L25.5999 28.4057C26.3879 29.1957 27.6679 29.1957 28.4559 28.4057C29.2439 27.6157 29.2439 26.3317 28.4559 25.5417L17.9199 15.0037L28.3959 4.61372C29.1839 3.83172 29.1839 2.56572 28.3959 1.78572C27.6079 1.00372 26.3279 1.00372 25.5399 1.78572L15.0779 12.1617L4.45992 1.54172C3.67192 0.751719 2.39192 0.751719 1.60392 1.54172C0.815922 2.33372 0.815922 3.61572 1.60392 4.40572L12.2059 15.0097L1.54392 25.5837C0.753923 26.3657 0.753922 27.6337 1.54192 28.4137Z" fill="white"/>
</svg>
