<?xml version="1.0" encoding="utf-8" ?><svg width="26" height="36" fill="none" xmlns="http://www.w3.org/2000/svg"><path d="M25.518 18c0 7.39-3.544 13.941-9.006 18 4.343-4.484 7.056-10.892 7.056-18 0-7.108-2.71-13.516-7.05-18a22.382 22.382 0 019 18z" fill="currentColor"/><path d="M16.511 17.998c0 6.57-3.153 12.39-8.005 16.002 3.86-3.986 6.274-9.68 6.274-16.002 0-6.32-2.412-12.011-6.268-15.998a19.9 19.9 0 018 15.998zM6.504 17.998C6.504 23.336 4.14 28.068.5 31c2.894-3.237 4.704-7.865 4.704-13.002C5.204 12.861 3.397 8.238.503 5c3.637 2.932 6.001 7.664 6.001 12.998z" fill="currentColor"/></svg>