<?xml version="1.0" encoding="utf-8" ?><svg width="30" height="21" viewBox="0 0 30 21" xmlns="http://www.w3.org/2000/svg"><path d="M19.4017 3.01214c.8281 0 1.4994-.67429 1.4994-1.50607C20.9011.67429 20.2298 0 19.4017 0c-.8281 0-1.4994.67429-1.4994 1.50607 0 .83178.6713 1.50607 1.4994 1.50607zM19.4017 7.48479c.8281 0 1.4994-.67429 1.4994-1.50607 0-.83177-.6713-1.50606-1.4994-1.50606-.8281 0-1.4994.67429-1.4994 1.50606 0 .83178.6713 1.50607 1.4994 1.50607zM1.49938 11.9584c.82809 0 1.49938-.6743 1.49938-1.506 0-.83182-.67129-1.50611-1.49938-1.50611C.6713 8.94629 0 9.62058 0 10.4524c0 .8317.6713 1.506 1.49938 1.506zM5.95251 11.9584c.82808 0 1.49938-.6743 1.49938-1.506 0-.83182-.6713-1.50611-1.49938-1.50611-.82809 0-1.49939.67429-1.49939 1.50611 0 .8317.6713 1.506 1.49939 1.506zM10.4955 11.9584c.8281 0 1.4994-.6743 1.4994-1.506 0-.83182-.6713-1.50611-1.4994-1.50611-.82811 0-1.49941.67429-1.49941 1.50611 0 .8317.6713 1.506 1.49941 1.506zM14.9466 11.9584c.8281 0 1.4994-.6743 1.4994-1.506 0-.83182-.6713-1.50611-1.4994-1.50611-.828 0-1.4993.67429-1.4993 1.50611 0 .8317.6713 1.506 1.4993 1.506zM19.4017 11.9584c.8281 0 1.4994-.6743 1.4994-1.506 0-.83182-.6713-1.50611-1.4994-1.50611-.8281 0-1.4994.67429-1.4994 1.50611 0 .8317.6713 1.506 1.4994 1.506zM19.4018 16.5211c.8282 0 1.4995-.6743 1.4995-1.5061 0-.8319-.6713-1.5062-1.4995-1.5062-.8281 0-1.4995.6743-1.4995 1.5062 0 .8318.6714 1.5061 1.4995 1.5061zM19.4017 21.0004c.8281 0 1.4994-.6743 1.4994-1.5061 0-.8317-.6713-1.506-1.4994-1.506-.8281 0-1.4994.6743-1.4994 1.506 0 .8318.6713 1.5061 1.4994 1.5061zM24.0404 7.48479c.8281 0 1.4994-.67429 1.4994-1.50607 0-.83177-.6713-1.50606-1.4994-1.50606-.8281 0-1.4994.67429-1.4994 1.50606 0 .83178.6713 1.50607 1.4994 1.50607zM24.0404 11.9584c.8281 0 1.4994-.6743 1.4994-1.506 0-.83182-.6713-1.50611-1.4994-1.50611-.8281 0-1.4994.67429-1.4994 1.50611 0 .8317.6713 1.506 1.4994 1.506zM24.0405 16.5211c.8281 0 1.4995-.6743 1.4995-1.5061 0-.8319-.6714-1.5062-1.4995-1.5062-.8281 0-1.4995.6743-1.4995 1.5062 0 .8318.6714 1.5061 1.4995 1.5061zM28.4994 11.9584c.8281 0 1.4994-.6743 1.4994-1.506 0-.83182-.6713-1.50611-1.4994-1.50611-.8281 0-1.4994.67429-1.4994 1.50611 0 .8317.6713 1.506 1.4994 1.506z" /></svg>