<svg width="16" height="16" viewBox="0 0 16 16" fill="none" xmlns="http://www.w3.org/2000/svg">
<path fill-rule="evenodd" clip-rule="evenodd" d="M8 -4.44333e-07C12.4183 -1.98935e-07 16 3.58172 16 8C16 12.4183 12.4183 16 8 16C3.58172 16 4.92859e-07 12.4183 1.10083e-06 8C1.7088e-06 3.58172 3.58172 -6.89731e-07 8 -4.44333e-07ZM8 2C4.68629 2 2 4.68629 2 8C2 11.3137 4.68629 14 8 14C11.3137 14 14 11.3137 14 8C14 4.68629 11.3137 2 8 2ZM4 9L8.58579 9L7.2929 10.2929L8.70711 11.7071L12.4142 8L8.70711 4.29289L7.2929 5.70711L8.58579 7L4 7L4 9Z" fill="currentColor" />
</svg>
