<svg width="218" height="26" viewBox="0 0 218 26" fill="none" xmlns="http://www.w3.org/2000/svg">
<g clip-path="url(#clip0_966_1786)">
<path d="M136.215 23.8739C130.456 23.9448 125.56 19.3399 125.668 12.5742C125.668 5.91479 129.664 0.955663 135.531 1.38073C139.959 1.69953 143.775 4.53332 144.963 9.4216H145.395L146.043 4.14367C145.251 3.29354 144.171 2.51425 142.803 1.77038C140.823 0.743129 138.123 0.0346823 135.351 0.0346823C127.504 -0.0715847 121.492 5.56057 121.6 12.8221C121.456 20.5796 128.08 26.1409 135.027 25.9993C140.067 25.9993 143.091 23.5551 145.359 20.5796L144.747 20.1192C142.407 22.5279 139.599 23.8739 136.215 23.8739Z" fill="white"/>
<path d="M20.2633 19.4106C18.6433 21.5359 16.3034 23.1299 13.7115 23.8384C12.5956 24.1572 11.2636 24.2988 9.75166 24.2988C9.10368 24.2988 8.41971 24.2634 7.77173 24.1572C7.12376 24.0509 7.15975 23.9446 6.47578 23.8029C6.43978 23.8029 6.47578 22.2089 6.47578 22.1027C6.47578 20.1544 6.47578 18.1708 6.47578 16.2226C6.47578 13.9909 6.47578 11.7948 6.47578 9.56315C6.47578 7.68577 6.29579 5.66669 6.58378 3.78931C6.76377 2.54953 7.91573 1.73481 9.03168 1.30974C9.28368 1.20348 9.53567 1.13263 9.78766 1.06179V0.672141C9.28368 0.672141 8.81569 0.707563 8.31171 0.707563C7.23175 0.742986 6.15179 0.742986 5.07183 0.742986C4.06387 0.742986 3.0919 0.742986 2.11994 0.707563C1.61596 0.707563 1.03998 0.672141 0.5 0.636719V0.95552C1.29197 1.2389 2.04794 1.69939 2.47993 2.40784C2.73192 2.8329 2.91191 3.39966 2.98391 4.10811C3.05591 4.81656 3.0919 5.66669 3.0919 6.72936V21.6422C3.0919 22.1381 3.05591 22.5986 2.94791 22.9528C2.87591 23.3424 2.65992 23.6612 2.40793 23.9092C2.11994 24.1572 1.72395 24.4051 1.25597 24.5822C1.03998 24.6531 0.823988 24.7239 0.535999 24.7593V25.3261C0.751991 25.3261 0.931984 25.2907 1.14798 25.2907C1.79595 25.2552 2.40793 25.2552 3.05591 25.2552H13.6035C14.5395 25.2552 15.4394 25.2552 16.3754 25.2907C17.3114 25.3261 18.2473 25.3615 19.1473 25.3969L21.4872 18.7021H20.6593C20.4793 19.0563 20.3353 19.3043 20.2633 19.4106Z" fill="white"/>
<path d="M81.2086 0.70783C80.3806 0.743252 79.5526 0.743252 78.7247 0.743252C77.8247 0.743252 76.9247 0.743252 76.0248 0.70783C75.5568 0.70783 75.0888 0.672407 74.6208 0.636985V1.06205C75.0528 1.27459 75.4488 1.55797 75.8088 1.7705C76.4208 2.19557 76.9247 2.79775 77.2487 3.61246C77.6087 4.42718 77.8247 5.419 77.9327 6.62336C78.0407 7.82772 78.1127 9.20919 78.1127 10.8386V15.231C78.1127 15.9749 78.1127 16.7187 78.0767 17.4626C78.0767 18.2065 78.0407 18.9503 78.0407 19.6942H77.9687C77.4647 18.9858 76.7447 18.1002 75.8808 17.0021C75.0168 15.904 74.0448 14.7351 73.0009 13.4599C71.9569 12.1847 70.877 10.874 69.761 9.56341C68.645 8.21737 67.6011 6.97758 66.5931 5.80865C65.6212 4.63971 64.7212 3.57704 63.9652 2.65606C63.2092 1.73508 62.6333 1.06205 62.3093 0.601562C61.7333 0.636985 61.1933 0.672407 60.6533 0.70783C60.1134 0.743252 59.5734 0.743252 58.9974 0.743252C57.9174 0.743252 56.9815 0.743252 56.1895 0.70783C55.7935 0.70783 55.3615 0.672407 54.9296 0.672407V1.06205C55.5055 1.23916 56.0815 1.41628 56.6215 1.62881C57.5935 2.01846 58.4574 2.62064 59.2854 3.54162L58.8174 20.8277C58.7814 21.7133 58.6734 22.3863 58.4574 22.8822C58.2414 23.3781 57.9174 23.7324 57.4855 24.0157C57.0535 24.2637 56.5135 24.4762 55.8655 24.5825C55.5775 24.6179 55.2535 24.6888 54.8936 24.7596V25.3264C55.1815 25.3264 55.4695 25.2909 55.7575 25.2909C56.4775 25.2555 57.1975 25.2555 57.9534 25.2555C59.2494 25.2555 60.5093 25.2555 61.7333 25.2909C62.5613 25.2909 63.3892 25.3264 64.2532 25.3618V24.795C63.6412 24.6888 63.1372 24.5825 62.7413 24.4054C62.0573 24.1574 61.5533 23.6969 61.1933 23.0239C60.8333 22.3155 60.6173 21.3236 60.5453 20.0484C60.4733 18.7378 60.4013 17.0021 60.4013 14.7705V8.14652C60.4013 7.50892 60.4014 6.8359 60.4373 6.23372C60.4373 5.59611 60.4733 4.95851 60.5093 4.32091C61.6613 5.56069 62.9573 6.94216 64.3972 8.53617C65.8371 10.0948 67.3491 11.795 68.861 13.637C70.409 15.4789 71.9569 17.3918 73.5409 19.4462C75.1248 21.4653 76.6008 23.5907 78.0047 25.7514H79.4086V5.7378C79.4086 4.25006 79.6966 3.15197 80.3086 2.44352C80.7406 1.94761 81.3886 1.38085 82.3245 1.06205V0.70783C82.0006 0.672407 81.6406 0.70783 81.2086 0.70783Z" fill="white"/>
<path d="M111.843 3.43597C110.583 2.30245 109.072 1.45232 107.344 0.885558C105.616 0.283379 103.78 0 101.836 0C99.8919 0 98.056 0.283379 96.328 0.885558C94.6001 1.48774 93.0881 2.33787 91.8282 3.43597C90.5682 4.56948 89.5243 5.91553 88.7683 7.50954C88.0123 9.10354 87.6523 10.9455 87.6523 12.9646C87.6523 14.9836 88.0123 16.8256 88.7683 18.4196C89.5243 20.0136 90.5322 21.3951 91.8282 22.4932C93.0881 23.6267 94.6001 24.4768 96.328 25.0436C98.056 25.6458 99.8919 25.9292 101.836 25.9292C103.78 25.9292 105.616 25.6458 107.344 25.0436C109.072 24.4414 110.583 23.5913 111.843 22.4932C113.103 21.3597 114.147 20.0136 114.903 18.4196C115.659 16.8256 116.019 14.9836 116.019 12.9646C116.019 10.9455 115.659 9.10354 114.903 7.50954C114.111 5.91553 113.103 4.56948 111.843 3.43597ZM111.267 17.4278C110.799 18.8447 110.152 20.0845 109.288 21.1471C108.424 22.2098 107.344 23.0599 106.12 23.6975C104.86 24.3351 103.456 24.6539 101.872 24.6539C100.288 24.6539 98.8839 24.3351 97.624 23.6975C96.364 23.0599 95.3201 22.2098 94.4561 21.1471C93.5921 20.0845 92.9081 18.8447 92.4762 17.4278C92.0082 16.0109 91.7922 14.5586 91.7922 13.0354C91.7922 11.5123 92.0082 10.0245 92.4762 8.64305C92.9441 7.22616 93.5921 5.98638 94.4561 4.92371C95.3201 3.86103 96.4 3.0109 97.624 2.3733C98.8839 1.73569 100.288 1.41689 101.872 1.41689C103.456 1.41689 104.86 1.73569 106.12 2.3733C107.38 3.0109 108.424 3.86103 109.288 4.92371C110.152 5.98638 110.835 7.22616 111.267 8.64305C111.735 10.0599 111.951 11.5123 111.951 13.0354C111.951 14.5232 111.735 16.0109 111.267 17.4278Z" fill="white"/>
<path d="M160.298 24.5485C159.758 24.336 159.362 24.0172 159.074 23.5921C158.822 23.167 158.642 22.6003 158.57 21.9272C158.498 21.2542 158.462 20.3687 158.462 19.306V6.69563C158.462 5.63296 158.498 4.78282 158.57 4.07437C158.642 3.36593 158.786 2.83459 159.038 2.40952C159.29 1.98445 159.686 1.66565 160.19 1.45312C160.478 1.34685 160.802 1.24059 161.198 1.16974V0.673828C160.73 0.70925 160.298 0.70925 159.83 0.744673C159.002 0.780095 158.138 0.780095 157.31 0.780095C156.23 0.780095 155.186 0.780095 154.178 0.744673C153.602 0.744673 152.99 0.70925 152.378 0.673828V1.24059C152.702 1.31143 152.99 1.38227 153.242 1.48854C153.782 1.70108 154.178 2.01988 154.466 2.44495C154.718 2.87001 154.898 3.43677 154.97 4.1098C155.042 4.81824 155.078 5.66838 155.078 6.73105V19.306C155.078 20.3687 155.042 21.2188 154.97 21.9272C154.898 22.6357 154.754 23.167 154.466 23.5921C154.214 24.0172 153.818 24.336 153.314 24.5485C153.062 24.6548 152.738 24.7256 152.414 24.7964V25.3632C152.918 25.3278 153.422 25.3278 153.926 25.2924C154.862 25.2569 155.762 25.2569 156.734 25.2569C157.706 25.2569 158.678 25.2569 159.65 25.2924C160.19 25.2924 160.73 25.3278 161.27 25.3632V24.7964C160.838 24.7256 160.55 24.6193 160.298 24.5485Z" fill="white"/>
<path d="M190.429 8.14728C190.537 8.11186 190.501 8.07644 190.501 8.04102L190.429 8.07644C190.393 8.11186 190.393 8.14728 190.429 8.14728Z" fill="white"/>
<path d="M182.653 24.7964C181.933 24.6548 181.285 24.4422 180.781 23.9463C179.953 23.0962 179.917 21.821 179.917 20.6875C179.917 14.4177 179.917 8.14794 179.917 1.87819C181.897 1.77192 184.345 1.7365 186.037 2.76375C187.513 3.68473 189.025 5.27873 189.925 6.94358L190.285 6.83732C189.529 3.86184 188.989 0.673828 188.989 0.673828C187.945 0.70925 186.901 0.744673 185.857 0.744673C182.725 0.815517 179.593 0.815517 176.461 0.815517C174.481 0.815517 172.502 0.780095 170.522 0.744673C169.478 0.70925 168.434 0.70925 167.39 0.673828C167.39 0.673828 166.85 3.86184 166.094 6.83732L166.454 6.94358C167.318 5.27873 168.866 3.68473 170.342 2.76375C171.998 1.7365 174.481 1.80734 176.425 1.87819C176.425 4.67655 176.425 7.47492 176.425 10.2733C176.425 13.6738 176.425 17.0744 176.425 20.5103C176.425 21.7855 176.353 23.2379 175.381 24.088C174.913 24.4776 174.337 24.6902 173.761 24.7964V25.3278C176.713 25.2215 179.665 25.2215 182.617 25.3278V24.7964H182.653Z" fill="white"/>
<path d="M215.701 24.158C214.873 23.3433 214.405 22.2807 213.937 21.218C213.397 19.9428 212.893 18.703 212.353 17.4278C211.309 14.9128 210.229 12.3624 209.185 9.84741C207.817 6.55313 206.449 3.29428 205.081 0C205.189 0.247956 201.841 0.956403 201.769 1.16894C201.733 1.23978 202.021 1.59401 202.057 1.70027C202.129 1.91281 202.129 2.16076 202.093 2.3733C202.057 2.86921 201.877 3.3297 201.661 3.75477C199.141 9.20981 196.621 14.6648 193.957 20.0845C193.021 21.9619 191.905 24.0163 190.105 24.9727V25.327C192.445 25.2207 194.785 25.2207 197.125 25.327V24.9373C196.153 24.5477 195.289 23.9809 195.001 23.0245C194.713 22.0327 195.109 21.0054 195.541 20.0845C196.153 18.703 196.765 17.3569 197.377 15.9755C197.629 15.8692 197.881 15.7984 198.169 15.7984C199.753 15.6921 201.337 17.109 202.597 18.03C202.705 18.1008 202.849 18.2071 202.957 18.2779C204.217 19.1281 205.513 18.8093 206.557 17.9237C206.917 17.6049 207.241 17.2153 207.565 16.7902C207.673 16.6485 207.781 16.4714 207.889 16.2943C207.997 16.1172 208.069 16.0109 208.141 15.9401C208.789 17.4632 209.437 19.0218 210.121 20.545C210.445 21.3242 210.805 22.2098 210.589 23.0599C210.409 23.8038 209.797 24.3706 209.077 24.7248C208.753 24.8665 208.429 24.9728 208.105 25.079V25.2916C211.237 25.1853 214.405 25.1853 217.536 25.327V25.2207C216.78 25.0082 216.168 24.6539 215.701 24.158ZM207.565 15.6213C207.457 15.7629 207.349 15.8692 207.241 16.0109C206.773 16.4714 206.233 16.7902 205.513 16.8256C203.497 16.861 201.913 15.3025 200.041 14.8065C199.537 14.6648 198.961 14.7003 198.457 14.8774C198.205 14.9482 197.917 15.0899 197.701 15.1962C199.429 11.3351 201.121 7.47411 202.849 3.61308C204.505 7.50954 206.161 11.3706 207.817 15.267C207.709 15.4087 207.637 15.5504 207.565 15.6213Z" fill="white"/>
<path d="M49.8181 24.158C48.9901 23.3433 48.5222 22.2807 48.0542 21.218C47.5142 19.9428 47.0102 18.703 46.4702 17.4278C45.4263 14.9128 44.3463 12.3624 43.3024 9.84741C41.9344 6.55313 40.5665 3.29428 39.1985 0C39.3065 0.247956 35.9586 0.956403 35.8866 1.16894C35.8506 1.23978 36.1386 1.59401 36.1746 1.70027C36.2466 1.91281 36.2466 2.16076 36.2106 2.3733C36.1746 2.86921 35.9946 3.3297 35.7786 3.75477C33.2587 9.20981 30.7388 14.6648 28.0749 20.0845C27.175 21.9264 26.059 23.9101 24.3311 24.9019V25.327C26.743 25.2207 29.1909 25.2207 31.6028 25.327V25.079C30.4868 24.6894 29.4429 24.0872 29.1189 23.0245C28.8309 22.0327 29.2269 21.0054 29.6589 20.0845C30.2708 18.703 30.8828 17.3569 31.4948 15.9755C31.7468 15.8692 31.9988 15.7984 32.2868 15.7984C33.8707 15.6921 35.4546 17.109 36.7146 18.03C36.8226 18.1008 36.9666 18.2071 37.0746 18.2779C38.3345 19.1281 39.6305 18.8093 40.6745 17.9237C41.0344 17.6049 41.3584 17.2153 41.6824 16.7902C41.7904 16.6485 41.8984 16.4714 42.0064 16.2943C42.1144 16.1172 42.1864 16.0109 42.2584 15.9401C42.9064 17.4632 43.5543 19.0218 44.2383 20.545C44.5623 21.3242 44.9223 22.2098 44.7063 23.0599C44.5263 23.8038 43.9143 24.3706 43.1944 24.7248C42.8704 24.8665 42.5464 24.9728 42.2224 25.079V25.2916C45.2463 25.1853 48.2702 25.1853 51.2941 25.327V25.079C50.6821 24.8665 50.2141 24.5477 49.8181 24.158ZM41.6824 15.6213C41.5744 15.7629 41.4664 15.8692 41.3584 16.0109C40.8904 16.4714 40.3505 16.7902 39.6305 16.8256C37.6146 16.861 36.0306 15.3025 34.1587 14.8065C33.6547 14.6648 33.0787 14.7003 32.5748 14.8774C32.3228 14.9482 32.0348 15.0899 31.8188 15.1962C33.5467 11.3351 35.2387 7.47411 36.9666 3.61308C38.6225 7.50954 40.2785 11.3706 41.9344 15.267C41.8264 15.4087 41.7544 15.5504 41.6824 15.6213Z" fill="white"/>
<path d="M165.95 8.14728C165.95 8.11186 165.95 8.11186 165.986 8.07644L165.914 8.04102C165.878 8.11186 165.842 8.11186 165.95 8.14728Z" fill="white"/>
</g>
<defs>
<clipPath id="clip0_966_1786">
<rect width="217" height="26" fill="white" transform="translate(0.5)"/>
</clipPath>
</defs>
</svg>
