<svg width="38" height="44" viewBox="0 0 38 44" fill="none" xmlns="http://www.w3.org/2000/svg">
<path d="M1.375 16.2358C1.375 8.16484 9.08088 1.34265 18.8713 1.34265C28.6617 1.34265 36.3676 8.16484 36.3676 16.2358C36.3676 22.0024 33.7583 25.8319 30.3877 29.4522C29.6456 30.2493 28.8632 31.0464 28.059 31.8657C25.2232 34.7548 22.1158 37.9205 19.5436 42.3405C19.5018 42.411 19.4256 42.4906 19.3054 42.5542C19.1839 42.6184 19.0331 42.6575 18.8713 42.6575C18.7094 42.6575 18.5587 42.6184 18.4372 42.5542C18.3168 42.4905 18.2406 42.4107 18.1988 42.3401C15.6266 37.9203 12.5193 34.7547 9.68353 31.8657C8.87935 31.0464 8.097 30.2493 7.35489 29.4522C3.98428 25.8319 1.375 22.0024 1.375 16.2358Z" stroke="currentColor" stroke-width="2"/>
<circle cx="18.8713" cy="17.3495" r="6.47281" stroke="currentColor" stroke-width="2"/>
</svg>
