<svg width="28" height="28" viewBox="0 0 28 28" fill="none" xmlns="http://www.w3.org/2000/svg">
<g clip-path="url(#clip0)">
<path d="M26.9245 6.81418L26.9583 7.03468C26.8043 6.47357 26.5099 5.96096 26.1029 5.54523C25.6958 5.1295 25.1895 4.82438 24.6318 4.65868L24.6081 4.65306C22.5033 4.08156 14.0331 4.08156 14.0331 4.08156C14.0331 4.08156 5.58438 4.07031 3.45813 4.65306C2.89942 4.81475 2.39111 5.11608 1.98112 5.52863C1.57112 5.94118 1.27296 6.45136 1.11475 7.01106L1.10913 7.03468C0.322751 11.1421 0.317126 16.0774 1.144 20.4751L1.10913 20.2523C1.26305 20.8134 1.55744 21.326 1.96451 21.7418C2.37157 22.1575 2.87788 22.4626 3.43563 22.6283L3.45925 22.6339C5.56188 23.2066 14.0343 23.2066 14.0343 23.2066C14.0343 23.2066 22.4819 23.2066 24.6092 22.6339C25.1682 22.4725 25.6768 22.1713 26.087 21.7587C26.4972 21.3461 26.7955 20.8358 26.9538 20.2759L26.9594 20.2523C27.3171 18.3421 27.5219 16.1438 27.5219 13.8983L27.5208 13.6497L27.5219 13.3909C27.5219 11.1443 27.3171 8.94606 26.9245 6.81418ZM11.3309 17.7514V9.54681L18.3801 13.6553L11.3309 17.7514Z" fill="currentColor"/>
</g>
<defs>
<clipPath id="clip0">
<rect width="27" height="27" fill="white" transform="translate(0.521851 0.144043)"/>
</clipPath>
</defs>
</svg>
