<svg width="28" height="29" viewBox="0 0 28 29" fill="none" xmlns="http://www.w3.org/2000/svg">
<g clip-path="url(#clip0)">
<path d="M14.5982 28.6444C14.5087 28.6444 14.4193 28.6444 14.3293 28.644C12.2129 28.6494 10.2575 28.5936 8.35569 28.4735C6.61219 28.3635 5.02067 27.7387 3.75299 26.6667C2.52976 25.6324 1.6945 24.2338 1.27036 22.5103C0.901216 21.0098 0.881651 19.5368 0.862878 18.1122C0.849272 17.0901 0.835298 15.8787 0.832397 14.647C0.835298 13.4101 0.849272 12.1989 0.862878 11.1767C0.881651 9.75226 0.901216 8.27937 1.27036 6.77863C1.6945 5.0551 2.52981 3.65652 3.75299 2.62216C5.02067 1.55018 6.61219 0.925374 8.35591 0.815343C10.2576 0.695523 12.2135 0.639523 14.3345 0.644882C16.4515 0.640179 18.4063 0.695523 20.308 0.815343C22.0516 0.925374 23.6431 1.55023 24.9108 2.62222C26.1342 3.65652 26.9693 5.0551 27.3934 6.77863C27.7626 8.27909 27.7821 9.75226 27.8009 11.1767C27.8145 12.1989 27.8287 13.4101 27.8313 14.6419V14.647C27.8287 15.8787 27.8145 17.09 27.8009 18.1122C27.7821 19.5366 27.7628 21.0095 27.3934 22.5103C26.9693 24.2338 26.1341 25.6324 24.9108 26.6667C23.6431 27.7387 22.0515 28.3635 20.308 28.4735C18.4869 28.5885 16.6161 28.6444 14.5982 28.6444ZM14.3293 26.4565C16.4112 26.4616 18.3229 26.4072 20.18 26.2901C21.4983 26.207 22.6413 25.7633 23.5778 24.9714C24.4434 24.2393 25.0396 23.2293 25.3496 21.9693C25.6569 20.7203 25.6746 19.3792 25.6917 18.0823C25.7051 17.0669 25.7191 15.8643 25.722 14.6444C25.7191 13.4244 25.7051 12.222 25.6917 11.2066C25.6746 9.90971 25.6569 8.56855 25.3496 7.31933C25.0395 6.05933 24.4434 5.04936 23.5778 4.31726C22.6413 3.5256 21.4983 3.08187 20.18 2.99874C18.3229 2.88149 16.4113 2.82746 14.3342 2.83216C12.2527 2.82702 10.3409 2.88149 8.48384 2.9988C7.16548 3.08192 6.02241 3.5256 5.08595 4.31731C4.22037 5.04936 3.62421 6.05938 3.31418 7.31933C3.00685 8.56855 2.98913 9.90949 2.97204 11.2066C2.95865 12.2228 2.94462 13.4262 2.94177 14.647C2.94467 15.8625 2.95865 17.0661 2.97204 18.0823C2.98913 19.3792 3.00685 20.7203 3.31418 21.9693C3.62426 23.2293 4.22037 24.2393 5.08595 24.9714C6.02241 25.7631 7.16548 26.2068 8.48384 26.2899C10.3409 26.4072 12.2531 26.4619 14.3293 26.4565ZM14.279 21.4804C10.6445 21.4804 7.68723 18.4138 7.68723 14.6444C7.68723 10.8751 10.6445 7.80851 14.279 7.80851C17.9138 7.80851 20.8708 10.8751 20.8708 14.6444C20.8708 18.4138 17.9138 21.4804 14.279 21.4804ZM14.279 9.99601C11.8075 9.99601 9.79661 12.0814 9.79661 14.6444C9.79661 17.2075 11.8075 19.2929 14.279 19.2929C16.7507 19.2929 18.7615 17.2075 18.7615 14.6444C18.7615 12.0814 16.7507 9.99601 14.279 9.99601ZM21.6091 5.62101C20.7355 5.62101 20.0271 6.35546 20.0271 7.26163C20.0271 8.1678 20.7355 8.90226 21.6091 8.90226C22.4829 8.90226 23.1911 8.1678 23.1911 7.26163C23.1911 6.35546 22.4829 5.62101 21.6091 5.62101Z" fill="currentColor"/>
</g>
<defs>
<clipPath id="clip0">
<rect width="27" height="28" fill="white" transform="translate(0.832397 0.644043)"/>
</clipPath>
</defs>
</svg>
